<?xml version="1.0" encoding="utf-8"?>
<!-- Generator: Adobe Illustrator 23.0.5, SVG Export Plug-In . SVG Version: 6.00 Build 0)  -->
<svg version="1.1" id="light" xmlns="http://www.w3.org/2000/svg" xmlns:xlink="http://www.w3.org/1999/xlink" x="0px" y="0px"
	 viewBox="0 0 512 512" style="enable-background:new 0 0 512 512;" xml:space="preserve">
<style type="text/css">
	.st0{fill:#0EDCF8;}
</style>
<g>
	<path class="st0" d="M458.7,512H53.3C23.9,512,0,488.1,0,458.7V53.3C0,23.9,23.9,0,53.3,0h405.3C488.1,0,512,23.9,512,53.3v405.3
		C512,488.1,488.1,512,458.7,512z M53.3,21.3c-17.6,0-32,14.4-32,32v405.3c0,17.6,14.4,32,32,32h405.3c17.6,0,32-14.4,32-32V53.3
		c0-17.6-14.4-32-32-32H53.3z"/>
	<g>
		<path class="st0" d="M311.3,330.4L175.6,194.7c-4.2-4.2-4.2-10.9,0-15.1c4.2-4.2,10.9-4.2,15.1,0l135.8,135.8
			c4.2,4.2,4.2,10.9,0,15.1C322.3,334.6,315.5,334.6,311.3,330.4z"/>
	</g>
	<g>
		<path class="st0" d="M326.4,195.7L190.7,331.4c-4.2,4.2-10.9,4.2-15.1,0c-4.2-4.2-4.2-10.9,0-15.1l135.8-135.8
			c4.2-4.2,10.9-4.2,15.1,0C330.6,184.7,330.6,191.5,326.4,195.7z"/>
	</g>
</g>
</svg>
